<?xml version="1.0" encoding="UTF-8"?><svg xmlns="http://www.w3.org/2000/svg" xmlns:xlink="http://www.w3.org/1999/xlink" fill-opacity="1" color-rendering="auto" color-interpolation="auto" text-rendering="auto" stroke="black" stroke-linecap="square" width="533" stroke-miterlimit="10" shape-rendering="auto" stroke-opacity="1" fill="black" stroke-dasharray="none" font-weight="normal" stroke-width="1" height="256" font-family="'Dialog'" font-style="normal" stroke-linejoin="miter" font-size="12px" stroke-dashoffset="0" image-rendering="auto">
  <!--Generated by ySVG 2.5-->
  <defs id="genericDefs"/>
  <g>
    <defs id="defs1">
      <linearGradient x1="160.4" gradientUnits="userSpaceOnUse" x2="316.8" y1="252.6" y2="316.6" id="linearGradient1" spreadMethod="reflect">
        <stop stop-opacity="1" stop-color="rgb(232,238,247)" offset="0%"/>
        <stop stop-opacity="1" stop-color="rgb(183,201,227)" offset="100%"/>
      </linearGradient>
      <clipPath clipPathUnits="userSpaceOnUse" id="clipPath1">
        <path d="M0 0 L533 0 L533 256 L0 256 L0 0 Z"/>
      </clipPath>
      <clipPath clipPathUnits="userSpaceOnUse" id="clipPath2">
        <path d="M57 182 L590 182 L590 438 L57 438 L57 182 Z"/>
      </clipPath>
    </defs>
    <g fill="white" text-rendering="geometricPrecision" shape-rendering="geometricPrecision" transform="translate(-57,-182)" stroke="white">
      <rect x="57" width="533" height="256" y="182" clip-path="url(#clipPath2)" stroke="none"/>
    </g>
    <g fill="url(#linearGradient1)" text-rendering="geometricPrecision" shape-rendering="geometricPrecision" transform="matrix(1,0,0,1,-57,-182)" stroke="url(#linearGradient1)">
      <path d="M160.4 252.6 L316.8 252.6 L316.8 316.6 L160.4 316.6 Z" stroke="none" clip-path="url(#clipPath2)"/>
    </g>
    <g text-rendering="geometricPrecision" stroke-miterlimit="1.45" shape-rendering="geometricPrecision" transform="matrix(1,0,0,1,-57,-182)" stroke-linecap="butt">
      <path fill="none" d="M160.4 252.6 L316.8 252.6 L316.8 316.6 L160.4 316.6 Z" clip-path="url(#clipPath2)"/>
      <text x="206.933" xml:space="preserve" y="274.6127" clip-path="url(#clipPath2)" font-family="sans-serif" stroke="none">개인 공유기</text>
      <text x="186.5863" xml:space="preserve" y="289.3139" clip-path="url(#clipPath2)" font-family="sans-serif" stroke="none">(WAN: 172.16.x.yy)</text>
      <text x="193.9047" xml:space="preserve" y="304.015" clip-path="url(#clipPath2)" font-family="sans-serif" stroke="none">(IP: 192.168.0.1)</text>
    </g>
    <g fill="rgb(255,204,0)" text-rendering="geometricPrecision" shape-rendering="geometricPrecision" transform="matrix(1,0,0,1,-57,-182)" stroke="rgb(255,204,0)">
      <rect x="88.4" width="125.2099" height="49" y="373.9" clip-path="url(#clipPath2)" stroke="none"/>
    </g>
    <g text-rendering="geometricPrecision" stroke-miterlimit="1.45" shape-rendering="geometricPrecision" transform="matrix(1,0,0,1,-57,-182)" stroke-linecap="butt">
      <rect fill="none" x="88.4" width="125.2099" height="49" y="373.9" clip-path="url(#clipPath2)"/>
      <text x="142.67" xml:space="preserve" y="395.7633" clip-path="url(#clipPath2)" font-family="sans-serif" stroke="none">PC</text>
      <text x="106.3096" xml:space="preserve" y="410.4644" clip-path="url(#clipPath2)" font-family="sans-serif" stroke="none">(IP: 192.168.0.2)</text>
    </g>
    <g fill="rgb(255,204,0)" text-rendering="geometricPrecision" shape-rendering="geometricPrecision" transform="matrix(1,0,0,1,-57,-182)" stroke="rgb(255,204,0)">
      <rect x="255.6" width="125.2099" height="49" y="373.9" clip-path="url(#clipPath2)" stroke="none"/>
    </g>
    <g text-rendering="geometricPrecision" stroke-miterlimit="1.45" shape-rendering="geometricPrecision" transform="matrix(1,0,0,1,-57,-182)" stroke-linecap="butt">
      <rect fill="none" x="255.6" width="125.2099" height="49" y="373.9" clip-path="url(#clipPath2)"/>
      <text x="262.538" xml:space="preserve" y="395.7633" clip-path="url(#clipPath2)" font-family="sans-serif" stroke="none">안드로이드 디바이스</text>
      <text x="273.5096" xml:space="preserve" y="410.4644" clip-path="url(#clipPath2)" font-family="sans-serif" stroke="none">(IP: 192.168.0.3)</text>
    </g>
    <g fill="red" text-rendering="geometricPrecision" shape-rendering="geometricPrecision" transform="matrix(1,0,0,1,-57,-182)" stroke="red">
      <rect x="72.4" width="502" height="5.2" y="197.3083" clip-path="url(#clipPath2)" stroke="none"/>
    </g>
    <g text-rendering="geometricPrecision" stroke-miterlimit="1.45" shape-rendering="geometricPrecision" transform="matrix(1,0,0,1,-57,-182)" stroke-linecap="butt">
      <rect fill="none" x="72.4" width="502" height="5.2" y="197.3083" clip-path="url(#clipPath2)"/>
    </g>
    <g fill="rgb(204,255,255)" text-rendering="geometricPrecision" shape-rendering="geometricPrecision" transform="matrix(1,0,0,1,-57,-182)" stroke="rgb(204,255,255)">
      <rect x="422.8" width="125.2099" height="49" y="373.9" clip-path="url(#clipPath2)" stroke="none"/>
    </g>
    <g text-rendering="geometricPrecision" stroke-miterlimit="1.45" shape-rendering="geometricPrecision" transform="matrix(1,0,0,1,-57,-182)" stroke-linecap="butt">
      <rect fill="none" x="422.8" width="125.2099" height="49" y="373.9" clip-path="url(#clipPath2)"/>
      <text x="459.738" xml:space="preserve" y="395.7633" clip-path="url(#clipPath2)" font-family="sans-serif" stroke="none">개발 서버</text>
      <text x="441.7204" xml:space="preserve" y="410.4644" clip-path="url(#clipPath2)" font-family="sans-serif" stroke="none">(IP: 172.16.x.zz)</text>
      <path fill="none" d="M151.0263 373.8782 L207.1924 316.619" clip-path="url(#clipPath2)"/>
      <path fill="none" d="M318.1855 373.8782 L267.1428 316.619" clip-path="url(#clipPath2)"/>
      <path fill="none" d="M238.6 252.5657 L238.6 202.5384" clip-path="url(#clipPath2)"/>
      <path fill="none" d="M485.405 373.9 L485.405 202.5341" clip-path="url(#clipPath2)"/>
    </g>
  </g>
</svg>
