<?xml version="1.0" encoding="UTF-8"?><svg xmlns="http://www.w3.org/2000/svg" width="810" height="336" version="1.0" shape-rendering="geometricPrecision"><defs><filter id="shadowBlur" x="0" y="0" width="200%" height="200%"><feOffset in="SourceGraphic" dx="3.0003002" dy="3.0003002" result="offOut"></feOffset><feGaussianBlur in="offOut" stdDeviation="3"></feGaussianBlur></filter></defs><g stroke-width="1" stroke-linecap="square" stroke-linejoin="round"><rect x="0" y="0" width="810" height="336" style="fill: #ffffff" fill-opacity="0.0"></rect><path stroke="#969696" fill="#969696" filter="url(#shadowBlur)" d="M25.0 98.0 Q25.0 91.0 30.0 91.0 L410.0 91.0 Q415.0 91.0 415.0 98.0 L415.0 182.0 L415.0 182.0 Q415.0 189.0 410.0 189.0 L30.0 189.0 L30.0 189.0 Q25.0 189.0 25.0 182.0 L25.0 98.0 z"></path><path stroke="#969696" fill="#969696" filter="url(#shadowBlur)" d="M505.0 105.0 L745.0 105.0 L745.0 168.0 Q745.0 175.0 740.0 175.0 L510.0 175.0 L510.0 175.0 Q505.0 175.0 505.0 168.0 L505.0 105.0 z"></path><path stroke="#969696" fill="#969696" filter="url(#shadowBlur)" d="M225.0 245.0 L415.0 245.0 L415.0 301.0 L225.0 301.0 z"></path><path stroke="#969696" fill="#969696" filter="url(#shadowBlur)" d="M25.0 245.0 L205.0 245.0 L205.0 301.0 L25.0 301.0 z"></path><path stroke="#000000" stroke-width="1.0" stroke-linecap="round" stroke-linejoin="round" fill="white" d="M25.0 98.0 Q25.0 91.0 30.0 91.0 L410.0 91.0 Q415.0 91.0 415.0 98.0 L415.0 182.0 L415.0 182.0 Q415.0 189.0 410.0 189.0 L30.0 189.0 L30.0 189.0 Q25.0 189.0 25.0 182.0 L25.0 98.0 z"></path><path stroke="#000000" stroke-width="1.0" stroke-linecap="round" stroke-linejoin="round" fill="#99dd99" d="M505.0 105.0 L745.0 105.0 L745.0 168.0 Q745.0 175.0 740.0 175.0 L510.0 175.0 L510.0 175.0 Q505.0 175.0 505.0 168.0 L505.0 105.0 z"></path><path stroke="#000000" stroke-width="1.0" stroke-linecap="round" stroke-linejoin="round" fill="#ffaaaa" d="M225.0 245.0 L415.0 245.0 L415.0 301.0 L225.0 301.0 z"></path><path stroke="#000000" stroke-width="1.0" stroke-linecap="round" stroke-linejoin="round" fill="white" d="M25.0 245.0 L205.0 245.0 L205.0 301.0 L25.0 301.0 z"></path><path stroke="none" stroke-width="1.0" stroke-linecap="round" stroke-linejoin="round" fill="#000000" d="M215.0 42.0 L210.0 56.0 L220.0 56.0 z"></path><path stroke="none" stroke-width="1.0" stroke-linecap="round" stroke-linejoin="round" fill="#000000" d="M615.0 42.0 L610.0 56.0 L620.0 56.0 z"></path><path stroke="none" stroke-width="1.0" stroke-linecap="round" stroke-linejoin="round" fill="#000000" d="M210.0 70.0 L215.0 84.0 L220.0 70.0 z"></path><path stroke="none" stroke-width="1.0" stroke-linecap="round" stroke-linejoin="round" fill="#000000" d="M610.0 84.0 L615.0 98.0 L620.0 84.0 z"></path><path stroke="none" stroke-width="1.0" stroke-linecap="round" stroke-linejoin="round" fill="#000000" d="M115.0 196.0 L110.0 210.0 L120.0 210.0 z"></path><path stroke="none" stroke-width="1.0" stroke-linecap="round" stroke-linejoin="round" fill="#000000" d="M315.0 196.0 L310.0 210.0 L320.0 210.0 z"></path><path stroke="none" stroke-width="1.0" stroke-linecap="round" stroke-linejoin="round" fill="#000000" d="M110.0 224.0 L115.0 238.0 L120.0 224.0 z"></path><path stroke="none" stroke-width="1.0" stroke-linecap="round" stroke-linejoin="round" fill="#000000" d="M310.0 224.0 L315.0 238.0 L320.0 224.0 z"></path><path stroke="#000000" stroke-width="1.0" stroke-linecap="round" stroke-linejoin="round" fill="none" d="M215.0 49.0 L215.0 77.0 "></path><path stroke="#000000" stroke-width="1.0" stroke-linecap="round" stroke-linejoin="round" fill="none" d="M115.0 203.0 L115.0 231.0 "></path><path stroke="#000000" stroke-width="1.0" stroke-linecap="round" stroke-linejoin="round" fill="none" d="M315.0 203.0 L315.0 231.0 "></path><path stroke="#000000" stroke-width="1.0" stroke-linecap="round" stroke-linejoin="round" fill="none" d="M25.0 35.0 L745.0 35.0 "></path><path stroke="#000000" stroke-width="1.0" stroke-linecap="round" stroke-linejoin="round" fill="none" d="M615.0 49.0 L615.0 91.0 "></path><text x="760" y="39" font-family="sans-serif" font-size="11" stroke="none" fill="#000000"><![CDATA[사내망]]></text><text x="185" y="110" font-family="sans-serif" font-size="15" stroke="none" fill="#000000"><![CDATA[My router]]></text><text x="558" y="124" font-family="sans-serif" font-size="15" stroke="none" fill="#000000"><![CDATA[Development server]]></text><text x="140" y="138" font-family="sans-serif" font-size="15" stroke="none" fill="#000000"><![CDATA[IP ex) 172.16.7.XXX]]></text><text x="140" y="152" font-family="sans-serif" font-size="15" stroke="none" fill="#000000"><![CDATA[DNS ex) 10.1.1.25]]></text><text x="550" y="152" font-family="sans-serif" font-size="15" stroke="none" fill="#000000"><![CDATA[IP ex) 172.16.7.YYY]]></text><text x="550" y="166" font-family="sans-serif" font-size="15" stroke="none" fill="#000000"><![CDATA[DNS ex) 10.1.1.25]]></text><text x="94" y="180" font-family="sans-serif" font-size="15" stroke="none" fill="#000000"><![CDATA[Internal DHCP server) 192.168.0.1]]></text><text x="91" y="264" font-family="sans-serif" font-size="14" stroke="none" fill="#000000"><![CDATA[My PC]]></text><text x="280" y="264" font-family="sans-serif" font-size="15" stroke="none" fill="#000000"><![CDATA[Target device]]></text><text x="48" y="292" font-family="sans-serif" font-size="15" stroke="none" fill="#000000"><![CDATA[ex) 192.168.0.X]]></text><text x="245" y="292" font-family="sans-serif" font-size="15" stroke="none" fill="#000000"><![CDATA[ex) 192.168.0.XXX]]></text></g></svg>